<svg width="238" height="129" viewBox="0 0 238 129" fill="none" xmlns="http://www.w3.org/2000/svg">
<g clip-path="url(#clip0_1_2)">
<mask id="path-1-inside-1_1_2" fill="white">
<path d="M218.632 95.1717C213.745 73.0675 201.443 53.2812 183.718 39.0155C165.992 24.7499 143.881 16.8398 120.962 16.5656C98.0436 16.2914 75.6595 23.6693 57.4331 37.5049C39.2067 51.3405 26.2047 70.8242 20.5318 92.802L119.169 117.163L218.632 95.1717Z"/>
</mask>
<path d="M218.632 95.1717C213.745 73.0675 201.443 53.2812 183.718 39.0155C165.992 24.7499 143.881 16.8398 120.962 16.5656C98.0436 16.2914 75.6595 23.6693 57.4331 37.5049C39.2067 51.3405 26.2047 70.8242 20.5318 92.802L119.169 117.163L218.632 95.1717Z" fill="#D89AFF" stroke="white" stroke-width="20" mask="url(#path-1-inside-1_1_2)"/>
<path d="M51.749 57.6255C46.2218 54.5864 46.2218 46.6444 51.749 43.6053L91.1147 21.9598C96.4463 19.0282 102.969 22.8855 102.969 28.9699L102.969 72.2609C102.969 78.3453 96.4463 82.2026 91.1147 79.271L51.749 57.6255Z" fill="#A574C4"/>
<path d="M184.543 43.6052C190.071 46.6444 190.071 54.5863 184.543 57.6255L145.178 79.271C139.846 82.2026 133.323 78.3453 133.323 72.2609L133.323 28.9699C133.323 22.8855 139.846 19.0281 145.178 21.9598L184.543 43.6052Z" fill="#A574C4"/>
<rect x="92.9231" y="20.1847" width="48.7385" height="28.4308" fill="#A574C4"/>
<path d="M144.469 66.5C144.469 80.5201 132.892 92 118.469 92C104.046 92 92.4692 80.5201 92.4692 66.5C92.4692 52.4799 104.046 41 118.469 41C132.892 41 144.469 52.4799 144.469 66.5Z" fill="#D9D9D9" stroke="#463B4E" stroke-width="8"/>
<path d="M126.719 79.9234C123.614 81.7164 119.982 82.3771 116.444 81.793C112.906 81.2088 109.68 79.416 107.316 76.7199C104.951 74.0238 103.595 70.5912 103.478 67.0071C103.36 63.4231 104.489 59.9092 106.672 57.0642C108.855 54.2192 111.957 52.2192 115.45 51.4049C118.942 50.5906 122.609 51.0124 125.825 52.5985C129.041 54.1845 131.608 56.8367 133.088 60.103C134.568 63.3694 134.869 67.0479 133.941 70.5117L126.455 68.5058C126.919 66.7739 126.768 64.9347 126.028 63.3015C125.288 61.6683 124.005 60.3423 122.397 59.5492C120.789 58.7562 118.956 58.5453 117.209 58.9525C115.463 59.3596 113.912 60.3596 112.821 61.7821C111.729 63.2046 111.165 64.9615 111.223 66.7536C111.282 68.5456 111.96 70.2619 113.142 71.6099C114.325 72.958 115.938 73.8544 117.707 74.1465C119.476 74.4386 121.291 74.1082 122.844 73.2117L126.719 79.9234Z" fill="url(#paint0_linear_1_2)"/>
<mask id="path-7-inside-2_1_2" fill="white">
<path d="M218.632 95.1717C213.745 73.0675 201.443 53.2812 183.718 39.0155C165.992 24.7499 143.881 16.8398 120.962 16.5656C98.0436 16.2914 75.6595 23.6693 57.4331 37.5049C39.2067 51.3405 26.2047 70.8242 20.5318 92.802L119.169 117.163L218.632 95.1717Z"/>
</mask>
<path d="M218.632 95.1717C213.745 73.0675 201.443 53.2812 183.718 39.0155C165.992 24.7499 143.881 16.8398 120.962 16.5656C98.0436 16.2914 75.6595 23.6693 57.4331 37.5049C39.2067 51.3405 26.2047 70.8242 20.5318 92.802L119.169 117.163L218.632 95.1717Z" stroke="white" stroke-width="20" mask="url(#path-7-inside-2_1_2)"/>
</g>
<defs>
<linearGradient id="paint0_linear_1_2" x1="118.969" y1="51" x2="118.969" y2="82" gradientUnits="userSpaceOnUse">
<stop stop-color="#533155"/>
<stop offset="1" stop-color="#6BA99F"/>
</linearGradient>
<clipPath id="clip0_1_2">
<rect width="238" height="129" fill="white"/>
</clipPath>
</defs>
</svg>
